<mxfile host="app.diagrams.net" modified="2021-10-28T14:43:39.616Z" agent="5.0 (Macintosh; Intel Mac OS X 10_15_7) AppleWebKit/537.36 (KHTML, like Gecko) Chrome/94.0.4606.71 Safari/537.36" etag="CASZ_06Vxr3oZigBB6rL" version="15.6.1" type="github">
  <diagram id="hcmwf4Jx9i_kf3e6nPrk" name="Page-1">
    <mxGraphModel dx="946" dy="646" grid="1" gridSize="10" guides="1" tooltips="1" connect="1" arrows="1" fold="1" page="1" pageScale="1" pageWidth="850" pageHeight="1100" math="0" shadow="0">
      <root>
        <mxCell id="0" />
        <mxCell id="1" parent="0" />
        <mxCell id="xHtk3kCsivh7HVOYM3B9-33" value="" style="group" vertex="1" connectable="0" parent="1">
          <mxGeometry x="70" y="70" width="720" height="300" as="geometry" />
        </mxCell>
        <mxCell id="xHtk3kCsivh7HVOYM3B9-7" value="&lt;font style=&quot;font-size: 19px&quot;&gt;Real&lt;br&gt;System&lt;/font&gt;" style="rounded=0;whiteSpace=wrap;html=1;strokeColor=default;strokeWidth=2;" vertex="1" parent="xHtk3kCsivh7HVOYM3B9-33">
          <mxGeometry x="465" y="130" width="120" height="60" as="geometry" />
        </mxCell>
        <mxCell id="xHtk3kCsivh7HVOYM3B9-11" value="Controller" style="rounded=0;whiteSpace=wrap;html=1;fontSize=19;strokeColor=default;strokeWidth=2;" vertex="1" parent="xHtk3kCsivh7HVOYM3B9-33">
          <mxGeometry x="140" y="130" width="120" height="60" as="geometry" />
        </mxCell>
        <mxCell id="xHtk3kCsivh7HVOYM3B9-13" value="y&lt;sub&gt;output&lt;/sub&gt;" style="endArrow=classic;html=1;rounded=0;fontSize=19;strokeWidth=2;jumpSize=4;" edge="1" parent="xHtk3kCsivh7HVOYM3B9-33">
          <mxGeometry x="-0.037" y="20" width="50" height="50" relative="1" as="geometry">
            <mxPoint x="585" y="160" as="sourcePoint" />
            <mxPoint x="720" y="160" as="targetPoint" />
            <mxPoint x="-1" as="offset" />
          </mxGeometry>
        </mxCell>
        <mxCell id="xHtk3kCsivh7HVOYM3B9-14" value="" style="ellipse;whiteSpace=wrap;html=1;aspect=fixed;fontSize=19;strokeColor=default;strokeWidth=2;" vertex="1" parent="xHtk3kCsivh7HVOYM3B9-33">
          <mxGeometry x="345" y="145" width="30" height="30" as="geometry" />
        </mxCell>
        <mxCell id="xHtk3kCsivh7HVOYM3B9-24" style="edgeStyle=orthogonalEdgeStyle;rounded=0;jumpSize=4;orthogonalLoop=1;jettySize=auto;html=1;exitX=1;exitY=0.5;exitDx=0;exitDy=0;entryX=0;entryY=0.5;entryDx=0;entryDy=0;fontSize=19;strokeWidth=2;" edge="1" parent="xHtk3kCsivh7HVOYM3B9-33" source="xHtk3kCsivh7HVOYM3B9-11" target="xHtk3kCsivh7HVOYM3B9-14">
          <mxGeometry relative="1" as="geometry" />
        </mxCell>
        <mxCell id="xHtk3kCsivh7HVOYM3B9-27" value="u&lt;sub&gt;fb&lt;/sub&gt;" style="edgeLabel;html=1;align=center;verticalAlign=middle;resizable=0;points=[];fontSize=19;" vertex="1" connectable="0" parent="xHtk3kCsivh7HVOYM3B9-24">
          <mxGeometry x="0.2824" y="2" relative="1" as="geometry">
            <mxPoint x="-14" y="-18" as="offset" />
          </mxGeometry>
        </mxCell>
        <mxCell id="xHtk3kCsivh7HVOYM3B9-16" value="" style="endArrow=classic;html=1;rounded=0;fontSize=19;strokeWidth=2;jumpSize=4;entryX=0;entryY=0.5;entryDx=0;entryDy=0;exitX=1;exitY=0.5;exitDx=0;exitDy=0;" edge="1" parent="xHtk3kCsivh7HVOYM3B9-33" source="xHtk3kCsivh7HVOYM3B9-14" target="xHtk3kCsivh7HVOYM3B9-7">
          <mxGeometry width="50" height="50" relative="1" as="geometry">
            <mxPoint x="310" y="270" as="sourcePoint" />
            <mxPoint x="360" y="220" as="targetPoint" />
          </mxGeometry>
        </mxCell>
        <mxCell id="xHtk3kCsivh7HVOYM3B9-21" value="Inverse&lt;br&gt;System" style="rounded=0;whiteSpace=wrap;html=1;fontSize=19;strokeColor=default;strokeWidth=2;" vertex="1" parent="xHtk3kCsivh7HVOYM3B9-33">
          <mxGeometry x="140" width="120" height="60" as="geometry" />
        </mxCell>
        <mxCell id="xHtk3kCsivh7HVOYM3B9-25" value="" style="endArrow=classic;html=1;rounded=0;fontSize=19;strokeWidth=2;jumpSize=4;entryX=0.5;entryY=0;entryDx=0;entryDy=0;" edge="1" parent="xHtk3kCsivh7HVOYM3B9-33" target="xHtk3kCsivh7HVOYM3B9-14">
          <mxGeometry width="50" height="50" relative="1" as="geometry">
            <mxPoint x="260" y="30" as="sourcePoint" />
            <mxPoint x="310" y="-20" as="targetPoint" />
            <Array as="points">
              <mxPoint x="360" y="30" />
            </Array>
          </mxGeometry>
        </mxCell>
        <mxCell id="xHtk3kCsivh7HVOYM3B9-26" value="u&lt;sub&gt;ff&lt;/sub&gt;" style="edgeLabel;html=1;align=center;verticalAlign=middle;resizable=0;points=[];fontSize=19;" vertex="1" connectable="0" parent="xHtk3kCsivh7HVOYM3B9-25">
          <mxGeometry x="-0.4246" y="3" relative="1" as="geometry">
            <mxPoint x="-12" y="-17" as="offset" />
          </mxGeometry>
        </mxCell>
        <mxCell id="xHtk3kCsivh7HVOYM3B9-28" value="" style="endArrow=classic;html=1;rounded=0;fontSize=19;strokeWidth=2;jumpSize=4;exitX=0.5;exitY=1;exitDx=0;exitDy=0;" edge="1" parent="xHtk3kCsivh7HVOYM3B9-33" source="xHtk3kCsivh7HVOYM3B9-7">
          <mxGeometry width="50" height="50" relative="1" as="geometry">
            <mxPoint x="150" y="240" as="sourcePoint" />
            <mxPoint x="200" y="190" as="targetPoint" />
            <Array as="points">
              <mxPoint x="525" y="300" />
              <mxPoint x="200" y="300" />
            </Array>
          </mxGeometry>
        </mxCell>
        <mxCell id="xHtk3kCsivh7HVOYM3B9-29" value="State" style="edgeLabel;html=1;align=center;verticalAlign=middle;resizable=0;points=[];fontSize=19;" vertex="1" connectable="0" parent="xHtk3kCsivh7HVOYM3B9-28">
          <mxGeometry x="-0.0972" y="-4" relative="1" as="geometry">
            <mxPoint x="-14" y="-16" as="offset" />
          </mxGeometry>
        </mxCell>
        <mxCell id="xHtk3kCsivh7HVOYM3B9-30" value="" style="endArrow=classic;html=1;rounded=0;fontSize=19;strokeWidth=2;jumpSize=4;" edge="1" parent="xHtk3kCsivh7HVOYM3B9-33">
          <mxGeometry width="50" height="50" relative="1" as="geometry">
            <mxPoint y="160" as="sourcePoint" />
            <mxPoint x="140" y="160" as="targetPoint" />
          </mxGeometry>
        </mxCell>
        <mxCell id="xHtk3kCsivh7HVOYM3B9-31" value="y&lt;sub&gt;desired&lt;/sub&gt;" style="edgeLabel;html=1;align=center;verticalAlign=middle;resizable=0;points=[];fontSize=19;" vertex="1" connectable="0" parent="xHtk3kCsivh7HVOYM3B9-30">
          <mxGeometry x="-0.5571" y="-1" relative="1" as="geometry">
            <mxPoint y="-21" as="offset" />
          </mxGeometry>
        </mxCell>
        <mxCell id="xHtk3kCsivh7HVOYM3B9-32" value="" style="endArrow=classic;html=1;rounded=0;fontSize=19;strokeWidth=2;jumpSize=4;entryX=0;entryY=0.5;entryDx=0;entryDy=0;" edge="1" parent="xHtk3kCsivh7HVOYM3B9-33" target="xHtk3kCsivh7HVOYM3B9-21">
          <mxGeometry width="50" height="50" relative="1" as="geometry">
            <mxPoint x="80" y="160" as="sourcePoint" />
            <mxPoint x="130" y="110" as="targetPoint" />
            <Array as="points">
              <mxPoint x="80" y="30" />
            </Array>
          </mxGeometry>
        </mxCell>
      </root>
    </mxGraphModel>
  </diagram>
</mxfile>
